<svg data-v-2cb57da0="" version="1.0" xmlns="http://www.w3.org/2000/svg" xmlns:xlink="http://www.w3.org/1999/xlink" width="100%" height="100%" viewBox="0 80 340 90" preserveAspectRatio="xMidYMid meet" color-interpolation-filters="sRGB" style="margin: auto;">
    <g data-v-2cb57da0="" fill="#71af85" class="icon-text-wrapper icon-svg-group iconsvg" transform="translate(24.449996948242188,93.43168640136719)">
        <g class="iconsvg-imagesvg" transform="translate(0,0)">
            <g>
                <rect fill="#71af85" fill-opacity="0" stroke-width="2" x="0" y="0" width="60" height="63.13662766226113" class="image-rect"></rect>
                <svg filter="url(#colors9165629742)" x="0" y="0" width="60" height="63.13662766226113" filtersec="colorsf4750835753" class="image-svg-svg primary" style="overflow: visible;">
                    <svg xmlns="http://www.w3.org/2000/svg" xmlns:xlink="http://www.w3.org/1999/xlink" version="1.1" x="0px" y="0px" viewBox="3.5028586387634277 2.0131235122680664 56.994285583496094 59.9737548828125" xml:space="preserve">
                        <g>
                            <g>
                                <path d="M60.3807449,35.7038383c-0.3806839-0.8203926-2.1577225-0.9332123-2.9267578-1.1313477    c1.7452812-2.051506,2.6222534-4.7552643,2.9243126-7.3991184c0.0584755-0.5118141,0.2206078-1.2424297,0.0254784-1.7456532    c-0.4306374-1.1105785-1.6919708-0.4483242-2.4644394-0.1833534c0.6149902-2.6476479,0.8242645-5.386116,0.7840576-8.0997925    c-0.018528-1.2506552,0.0530701-2.7105742-0.2596436-3.9363394c-0.3149338-1.2344837-1.8332939-0.8686686-2.7954979-0.7776861    c-1.3195229,0.1247692-2.6256065,0.3855629-3.895359,0.7646322c-1.8591118,0.5550146-3.64851,1.359951-5.2993774,2.3792648    c0-0.5621328,0.1532745-1.4065771-0.2525482-1.8634109c-0.8319664-0.9365444-2.9830894,0.5141735-3.8250694,0.9484453    c-1.8052711,0.9311094-3.5310173,2.0871658-4.9223824,3.5795155c0-0.7029362,0.0572624-1.6436958-0.891243-1.7392654    c-1.0436821-0.1051579-2.4176216,1.4188538-3.0929489,2.0811234c-0.8360939-3.5950689-2.3222752-7.2602034-4.9312916-9.9475918    c-0.4347668-0.4478264-0.9417133-0.9905586-1.504818-1.2847891c-0.6091385-0.3182836-1.3150063-0.1491556-1.5447559,0.5544486    c-0.1971684,0.6038337-0.0692539,1.3786607-0.1715031,2.0170903c-0.0902958,0.5638008-0.2293854,1.1213026-0.4210567,1.659317    c-1.1594944-3.9084177-3.9622364-7.370975-7.5777779-9.2805443c-0.51297-0.2709284-0.9385815-0.4386988-1.5022993-0.0837138    c-1.1081085,0.6977985-2.0169058,2.0648649-2.7027874,3.1455109c-1.4374876,2.2648444-2.3648376,4.8416033-2.9983845,7.4374971    c-0.2345839-0.6065836-0.4117813-1.2911825-0.7203341-1.8626337c-0.2899218-0.5369473-0.8439541-0.8702707-1.4402051-0.5266476    c-0.6232438,0.3591785-0.7078166,1.407095-0.8373718,2.039608c-0.6606293,3.2253141-0.3416529,6.6196041,0.3387313,9.8145161    c-0.3300166-0.3804092-0.7454195-0.716465-1.2861328-0.5561523c-0.8455539,0.2506962-0.8192873,1.3765602-0.8786669,2.0849857    c-0.133388,1.5913849,0.0606794,3.2024117,0.6071825,4.7050533c-0.3740115-0.1936836-0.8075771-0.5197773-1.2270966-0.5981598    c-1.1587508-0.2164974-1.2734134,0.992836-1.1477664,1.8136768c0.318651,2.0817165,1.4513309,4.0529919,2.5652926,5.8049908    c-0.6636481-0.1727066-1.6747851-0.6564064-2.2757645-0.1468391c-1.0236757,0.8679695,0.6563115,3.4100571,1.1093149,4.3275604    c1.1292315,2.2871246,2.5175805,4.4864006,4.3223753,6.3034515c1.2544203,1.2629356,2.7189188,2.334465,4.3715067,3.0133209    c0.6335487,0.2602501,1.2910833,0.4623985,1.9629393,0.5963669c0.2826395,0.0563583,0.5790644,0.069725,0.8587427,0.1334229    c0.0943565,0.021492,0.2649479-0.0145073,0.34688,0.0325089c0.2554073,0.1465569,0.3391685,0.7143898,0.4489937,1.0364914    c0.3199406,0.9383392,1.1789818,4.7570801,2.7451153,3.7622833c0.8259697-0.5246468,0.3145313-1.3943443,0.0318336-2.073658    c-0.3942604-0.9473915-0.7434158-1.9131851-1.0595112-2.889328c0.6350288-0.1564064,1.2531223-0.3785667,1.8555012-0.6317978    c0.4396629-0.1848297,1.4476624-0.8502235,1.7491589-0.6680756c0.3896103,0.2353821,0.784441,1.0922432,1.1025963,1.456234    c0.1602516,0.1833344,0.6433315,0.5229797,0.6871529,0.7279167c0.041584,0.1944618-0.3106785,0.7161407-0.3843079,0.8924789    c-1.0484543,2.5110092-1.8557491,5.13097-2.2862606,7.8208885c-0.1340351,0.8374825-0.6574974,2.6378365,0.6813107,2.7696648    c1.2218304,0.1203117,1.1359406-1.4165192,1.2572556-2.2170944c0.4135513-2.7290955,1.2494793-5.3827248,2.3327713-7.9169388    c5.6071987,4.0594215,13.9681015,3.440979,20.0507545,0.8128586c3.6864471-1.5927963,7.1104736-4.039711,9.7676926-7.0604744    c0.2704468-0.3074455,0.6442413-0.658783,0.6847878-1.0891762c0.131916-1.4001694-1.7909622-1.0941162-2.6411133-1.0941162    c1.9517174-1.4128685,3.7881851-3.0398178,5.2772446-4.9422951C59.5786018,37.8682022,60.786602,36.5800476,60.3807449,35.7038383    z M18.3971634,47.6965752c-0.8822327-3.2343597-1.412199-6.5599098-1.7167702-9.8959579    c-0.1414165-1.5489769-0.4477482-3.311161-0.2885532-4.8624687c0.1207504-1.1766777,1.0767632-2.5645084,1.6273384-3.605875    c1.0912609-2.0640202,2.2946854-4.0701447,3.5565166-6.0340328c0.231245-0.3599072,0.5323029-0.7214184,0.7228031-1.1053181    c0.5865555-1.1820393-0.8184032-2.0855961-1.6710892-1.0982361c-0.5922546,0.6858006-1.0410633,1.5906391-1.517416,2.3558502    c-0.958292,1.5394001-1.8784084,3.1038933-2.7328491,4.7034969c0.0845757-3.7548389,0.3641129-7.5143642,0.8808632-11.2352638    c0.0805244-0.5798302,0.4043427-1.5516415,0.0341148-2.0792494c-0.7869511-1.1214838-1.7283325-0.0095434-1.8805313,0.8628817    c-0.9787169,5.6101589-1.2195568,11.4506779-1.0591726,17.1299381c0.1412277,5.0009384,0.6924868,10.023819,1.9664984,14.8702164    c-5.0674973-0.7885056-8.2431135-5.8083076-10.1530142-10.104187c0.8029623,0.208847,4.0267334,1.288681,3.2262888-0.8278503    c-0.3179245-0.8406563-1.184329-1.6795464-1.6627283-2.4421844c-0.7159066-1.1412621-1.3900599-2.3338318-1.8545761-3.6020355    c0.6298218,0.325983,1.2520638,0.6799984,1.8942165,0.9804096c1.0834379,0.5068531,2.1780348-0.3061123,1.4231663-1.4569721    c-1.1012325-1.6789169-1.881916-3.2266445-1.9208984-5.3173828c0.4955535,0.513792,0.9830799,1.2199917,1.5799885,1.6110821    c0.6452045,0.4227352,1.5230694,0.1074638,1.5957031-0.7151566c0.0325661-0.3688393-0.1698675-0.7818832-0.2763901-1.1308804    c-0.9535227-3.1239643-1.549592-6.471529-1.3465672-9.7435598c0.279397,0.7219019,0.5385914,2.2025633,1.3836479,2.4462862    c1.0915623,0.3148193,1.2419682-0.8049183,1.3586817-1.5497894c0.3879948-2.4762144,1.0582914-4.9471922,2.0909395-7.2338238    c0.6307087-1.3966017,1.4147873-2.7474236,2.4451647-3.8891473c0.4917545-0.5448956,0.525898-0.5585933,1.0947323-0.1965127    c0.4041481,0.2572532,0.7938976,0.5372019,1.169054,0.8350577c2.2491112,1.7856889,3.9221249,4.2350278,4.6951561,7.007237    c0.2265186,0.8123293,0.1432648,2.4613447,0.9672127,2.8862381c0.5921154,0.3053408,1.0442047-0.0443649,1.403656-0.4708595    c1.0488777-1.2445097,1.621748-2.97785,1.8780823-4.5544128c1.2106285,1.3194904,2.1303616,2.8939829,2.8426495,4.5298662    c0.52985,1.2168875,0.9442177,2.4818192,1.2688408,3.768137c0.1760101,0.697443,0.5299301,1.5831451,0.2356472,2.220459    c-0.259573,0.562151-0.688282,1.0719566-0.973114,1.627533c-0.1209145-0.5019951-0.167305-1.1945171-0.5973663-1.5334282    c-0.9708614-0.7650928-1.8344097,0.5979996-2.2924347,1.2929993c-1.1403027,1.7302799-1.7298088,3.7960835-2.0535583,5.8253899    c-0.3912334-0.6056099-0.8923378-1.4783363-1.7575684-0.9920044c-0.8476238,0.4764385-1.4389706,2.2095985-1.8501835,3.0593472    c-1.0707226,2.2125912-1.8117561,4.5994701-2.0856571,7.0453739c-0.2421284,2.162178-0.0825787,4.370903,0.4726372,6.4744339    c0.2214928,0.8391571,0.763607,1.7350006,0.8922195,2.5742874c0.0711727,0.464447-0.0345573,0.3860397-0.5182209,0.6263771    c-0.3023205,0.1502228-0.6097698,0.2909088-0.9217529,0.4198494    C19.4616489,47.3838959,18.936367,47.5717125,18.3971634,47.6965752z M49.9647293,43.5544243    c-0.6465225,0.3827019-0.6422081,1.3512611,0.0089912,1.7269516c0.3013611,0.1738586,0.6368332,0.1273155,0.9664536,0.1338882    c0.7552681,0.0150566,1.5122528,0,2.2677193,0c-4.1468391,4.092762-9.6705246,6.8719215-15.5279465,7.2285728    c-2.0818672,0.1267624-4.201088-0.0325966-6.2376785-0.4868736c-0.9549866-0.2130165-1.8752022-0.5354652-2.7470284-0.9812126    c-0.4583588-0.2343483-0.9010639-0.4982834-1.3245773-0.7910385c-0.0123253-0.0085182-0.5366993-0.3315697-0.5537605-0.4069481    c-0.0390739-0.1726379,0.3413239-0.6852074,0.4378376-0.8726196c0.3485394-0.6768188,0.1965542-0.5037193,0.7668209-0.5844116    c0.5419426-0.076683,1.1500664,0,1.6973705,0c0.8875847,0,1.8630886,0.1175308,2.7440166,0    c0.8117294-0.1082954,1.4063606-1.018383,0.7178459-1.7070923c-0.3595657-0.3596687-0.8778458-0.2929077-1.33988-0.2929077    c-1.0556927,0-2.1113853,0-3.167078,0c0.7522526-1.2251129,1.5508442-2.4222031,2.3574829-3.6119843    c0.1420555-0.2095299,0.4756927-0.9249153,0.7046986-1.0033188c0.1027584-0.0351791,0.3163967,0.0693016,0.4247341,0.0798264    c1.561367,0.1516647,3.1454582,0.5911598,4.6871872,0.8809128c0.8203545,0.1541786,2.9087296,0.9566116,3.4776535-0.013485    c0.9437752-1.6092834-2.0814857-1.7593155-2.9260521-1.918045c-1.4565811-0.2737503-2.913166-0.5475044-4.3697472-0.8212547    c1.1567078-1.5084038,2.3681641-2.9745598,3.6224442-4.4027367c0.4850578-0.5523109,0.619957-0.4075012,1.3261986-0.3466835    c1.884922,0.1623192,3.7698441,0.3246384,5.6547623,0.4869576c0.8538933,0.0735359,3.2148285,0.7110825,3.7276917-0.3143883    c0.8862381-1.7720413-2.7069321-1.6046906-3.5408096-1.6764984c-1.6987495-0.1462822-3.3975029-0.2925682-5.0962563-0.4388504    c1.1765022-1.2491379,2.3834457-2.4696484,3.6166534-3.6628132c0.4813919-0.4657612,0.7059212-0.8551617,1.328804-0.9163494    c1.5428276-0.1515522,3.1746292,0,4.7253685,0c0.4029732,0,0.9472427,0.0877113,1.3448639-0.0357227    c1.2140312-0.3768711,0.7452583-1.8467522-0.3474045-1.9642773c-1.2740593-0.1370335-2.6321983,0-3.9150505,0    c1.7375908-1.5558624,3.5198593-3.064188,5.356369-4.5022717c0.6433258-0.5037594,2.7763863-1.9048424,1.0407372-2.664196    c-0.887558-0.3883076-2.1404305,0.9788361-2.7448425,1.4584236c-1.9409828,1.5401211-3.8236885,3.1544018-5.6558037,4.8223019    c0-0.7673664,0.1917038-1.7829571-0.0356903-2.5226612c-0.2498665-0.8128204-1.38451-0.9981461-1.8278809-0.2388763    c-0.1892891,0.3241615-0.1364288,0.7529793-0.1364288,1.1133633c0,1.0296745,0.1287956,2.1467705,0,3.1676121    c-0.0769691,0.6100712-0.5151138,0.8379841-0.9797478,1.2917767c-0.8560944,0.8361187-1.7000351,1.6847286-2.5291023,2.5476723    c-0.1484375-1.378561-0.2968788-2.7571239-0.4453201-4.1356869c-0.0803528-0.7462521-0.4498177-1.6864738-1.4136353-1.3032799    c-0.7351761,0.2922897-0.6299477,1.0035706-0.5633736,1.62187c0.176075,1.6352901,0.35215,3.2705803,0.5282211,4.9058723    c0.0871658,0.809536,0.1179504,0.8084106-0.4646568,1.4648476c-1.1970901,1.348793-2.3592911,2.727169-3.4764404,4.1430321    c-0.1312962-1.2169762-0.2625942-2.4339561-0.3938923-3.6509323c-0.0943336-0.8743629,0.0594997-3.7364445-1.4996662-3.3379593    c-1.2208118,0.3120117-0.6190643,2.3437119-0.5257969,3.2082024c0.1746788,1.619091,0.3493576,3.2381859,0.5240364,4.8572769    c0.0367203,0.3403702,0.2098198,0.9075089,0.1348553,1.2499809c-0.0998535,0.4561691-0.7510681,1.0855217-1.0185986,1.4806976    c-0.5136852,0.7587776-1.0206203,1.5222168-1.5179958,2.2917938c-0.133522-0.6943932-0.1275997-1.7278633-0.5350342-2.3205032    c-0.4238491-0.6165276-1.3677197-0.5725365-1.7094173,0.1048927c-0.1740398,0.3450356-0.0853405,0.6640282-0.0236492,1.0164642    c0.163105,0.9317856,0.3574696,1.8591881,0.5360794,2.7881355c0.0514545,0.2676125,0.2056503,0.6559525,0.1783962,0.9278259    c-0.0581856,0.5804024-0.7305164,1.4097252-0.9958744,1.9380188c-4.6557178-5.216732-3.8894844-13.060524-0.7654419-18.8086548    c0.3574848,0.5540543,0.6776581,1.2089996,1.1036758,1.7105522c0.7351685,0.8655205,1.7383728,0.3919277,1.8543053-0.6341133    c0.2669201-2.3623314,0.4246807-4.6641445,1.5420189-6.8308334c0.1515923,0.6293335,0.2408276,1.3137207,0.4626274,1.9206047    c0.4499416,1.231123,1.656826,0.9501553,2.0210857-0.1505928c0.8084927-2.4431686,1.9919109-4.6161175,3.9723415-6.3198166    c0,0.7514477-0.2915382,2.2150021,0.2485352,2.8275146c0.8648376,0.9808369,1.5601273-0.138361,1.9094124-0.8584976    c1.2848091-2.6489334,4.2808189-4.3902988,6.8420525-5.5442114c0,0.5523252-0.1008644,1.2068567,0.0202103,1.7482138    c0.2159119,0.9653912,1.0792084,0.9563274,1.7680206,0.5117512c1.3604813-0.8780823,2.673172-1.7190094,4.1825829-2.3424454    c1.1806717-0.4876566,2.4056244-0.865962,3.658947-1.1144352c0.6378403-0.1264524,1.4760742-0.359581,2.1306229-0.2900953    c0.4267197,0.0453005,0.259243-0.0536346,0.3697357,0.2973108c0.0687294,0.2182817,0.0385742,0.5325947,0.051857,0.7620697    c0.1506577,2.6029148,0.0675163,5.2381554-0.362648,7.8121853c-0.1442795,0.8633366-0.3289337,1.7207336-0.5679588,2.5630074    c-0.1962662,0.6916103-0.4889107,1.572794,0.4000664,1.9068222c0.646431,0.2428932,1.6208878-0.3067837,2.2304001-0.5160065    c-0.3470535,2.5995483-1.3033638,5.0990791-3.263401,6.900238c-2.0142479,1.8509712,1.595787,2.3238525,2.801487,2.6344299    C55.8442345,39.5801582,52.9453049,41.7913933,49.9647293,43.5544243z"></path>
                            </g>
                        </g>
                    </svg>
                </svg>
                <defs>
                    <filter id="colors9165629742">
                        <feColorMatrix type="matrix" values="0 0 0 0 0.44140625  0 0 0 0 0.68359375  0 0 0 0 0.51953125  0 0 0 1 0" class="icon-fecolormatrix"></feColorMatrix>
                    </filter>
                    <filter id="colorsf4750835753">
                        <feColorMatrix type="matrix" values="0 0 0 0 0.99609375  0 0 0 0 0.99609375  0 0 0 0 0.99609375  0 0 0 1 0" class="icon-fecolormatrix"></feColorMatrix>
                    </filter>
                    <filter id="colorsb2978703824">
                        <feColorMatrix type="matrix" values="0 0 0 0 0  0 0 0 0 0  0 0 0 0 0  0 0 0 1 0" class="icon-fecolormatrix"></feColorMatrix>
                    </filter>
                </defs>
            </g>
        </g>
        <g transform="translate(67,14.603313446044922)">
            <g data-gra="path-name" fill-rule="" class="tp-name iconsvg-namesvg">
                <g transform="scale(1)">
                    <g>
                        <path d="M8.31 2.68L1.75 2.72Q1.64-0.97 1.64-4.36L1.64-4.36Q1.64-10.47 2.01-15.42 2.38-20.37 3.09-23.84L3.09-23.84Q3.43-25.44 4.04-26.93 4.66-28.42 5.79-29.37 6.93-30.32 8.79-30.32L8.79-30.32Q10.61-30.32 11.88-29.37 13.15-28.42 13.95-27.08 14.75-25.74 15.12-24.51L15.12-24.51Q16.09-21.6 16.76-18.7 17.43-15.79 17.95-13.15L17.95-13.15Q18.32-15.08 18.81-17.23 19.29-19.37 19.78-21.28 20.26-23.2 20.67-24.47L20.67-24.47Q22.57-30.32 26.52-30.32L26.52-30.32Q28.72-30.32 30.24-28.73 31.77-27.15 32.48-24.17L32.48-24.17Q32.81-22.83 33.17-20.26 33.52-17.69 33.84-14.17 34.15-10.65 34.39-6.41 34.64-2.16 34.79 2.61L34.79 2.61 28.23 2.46Q28.23 0.48 28.14-2.12 28.04-4.73 27.88-7.54 27.71-10.35 27.5-13.04 27.3-15.72 27.09-17.88 26.89-20.04 26.7-21.32 26.52-22.61 26.37-22.61L26.37-22.61Q26.33-22.61 25.98-21.28 25.62-19.96 25.12-17.77 24.62-15.57 24.02-12.92 23.43-10.28 22.85-7.62 22.27-4.95 21.82-2.7 21.38-0.45 21.12 0.97L21.12 0.97 15.27 1.12Q14.82-0.97 14.21-3.48 13.59-6 12.94-8.62 12.29-11.25 11.66-13.69 11.02-16.13 10.48-18.06 9.94-20 9.61-21.14 9.27-22.27 9.2-22.27L9.2-22.27Q9.05-22.27 8.88-20.65 8.72-19.03 8.57-16.28 8.42-13.52 8.32-10.06 8.23-6.59 8.23-2.91L8.23-2.91Q8.23-1.15 8.25 0.3 8.27 1.75 8.31 2.68L8.31 2.68ZM44.62-24.06L38.21-24.06Q38.21-24.39 38.19-24.75 38.18-25.1 38.18-25.55L38.18-25.55Q38.18-26.74 38.25-28.08 38.32-29.42 38.4-30.35L38.4-30.35 45.03-30.24Q44.92-28.98 44.79-27.37 44.66-25.77 44.62-24.06L44.62-24.06ZM44.54 2.61L38.06 2.61Q37.95 0.3 37.91-2.33 37.88-4.95 37.88-7.6L37.88-7.6Q37.88-11.06 37.95-14.34 38.03-17.62 38.14-20.3L38.14-20.3 44.54-20.34Q44.39-18.62 44.36-16.11 44.32-13.59 44.32-10.84L44.32-10.84Q44.32-8.12 44.36-5.47 44.39-2.83 44.45-0.69 44.51 1.45 44.54 2.61L44.54 2.61ZM54.45 2.64L48.45 2.68Q48.34-0.6 48.29-3.39 48.23-6.18 48.23-8.9L48.23-8.9Q48.23-11.62 48.29-14.36 48.34-17.09 48.49-20.22L48.49-20.22 54.79-20.22Q54.64-18.55 54.53-16.83L54.53-16.83Q55.79-18.44 57.54-19.5 59.29-20.56 61.68-20.56L61.68-20.56Q64.02-20.56 65.53-19.78 67.04-18.99 67.91-17.62 68.79-16.24 69.18-14.47 69.57-12.7 69.68-10.67 69.8-8.64 69.8-6.59L69.8-6.59Q69.8-4.36 69.72-2.31 69.65-0.26 69.57 1.12 69.5 2.5 69.46 2.76L69.46 2.76 63.2 2.76Q63.28 1.23 63.35-0.5 63.43-2.23 63.5-3.93 63.58-5.62 63.58-7L63.58-7Q63.58-14.93 61.01-14.93L61.01-14.93Q58.88-14.93 57.15-13.09 55.42-11.25 54.26-8.45L54.26-8.45Q54.26-8.08 54.26-7.71L54.26-7.71Q54.26-5.92 54.28-4 54.3-2.09 54.36-0.35 54.41 1.38 54.45 2.64L54.45 2.64ZM84.62 2.94L84.62 2.94Q82.38 2.94 81.08 1.99 79.78 1.04 79.18-0.63 78.58-2.31 78.42-4.47 78.25-6.63 78.25-9.01L78.25-9.01Q78.25-11.47 78.44-14.12L78.44-14.12Q75.94-13.78 73.63-13.26L73.63-13.26 72.48-19.11Q75.57-19.93 79.07-20.3L79.07-20.3Q79.33-22.2 79.63-24.3 79.93-26.41 80.3-28.75L80.3-28.75 86.7-28.19Q86.26-26.26 85.92-24.34 85.59-22.42 85.33-20.63L85.33-20.63Q87.41-20.63 89.26-20.54 91.1-20.45 92.66-20.22L92.66-20.22 91.92-14.38Q90.61-14.53 89.22-14.58 87.82-14.64 86.41-14.64L86.41-14.64Q85.55-14.64 84.69-14.6L84.69-14.6Q84.47-11.88 84.41-9.94 84.36-8.01 84.36-7.19L84.36-7.19Q84.36-5.14 84.6-4.25 84.84-3.35 85.4-3.35L85.4-3.35Q86.03-3.35 86.82-3.78 87.6-4.21 88.36-4.95 89.12-5.7 89.65-6.55L89.65-6.55 92.51-0.56Q88.83 2.94 84.62 2.94ZM108.27 2.76L108.27 2.76Q105.44 2.76 103.18 2.36 100.93 1.97 99.37 0.88 97.8-0.22 96.98-2.35 96.16-4.47 96.16-7.9L96.16-7.9Q96.16-10.39 96.42-13.07 96.69-15.75 97.08-18.27 97.47-20.78 97.84-22.76L97.84-22.76Q97.09-22.64 96.57-22.53L96.57-22.53 95.87-28.45Q97.69-28.79 100.09-29.03 102.5-29.27 105.2-29.46 107.9-29.65 110.58-29.74 113.26-29.83 115.61-29.83L115.61-29.83Q117.47-29.83 119.01-29.78 120.56-29.72 121.56-29.61L121.56-29.61 121.27-23.39Q120.26-23.58 118.55-23.67 116.83-23.76 114.71-23.76L114.71-23.76Q112.22-23.76 109.39-23.65 106.55-23.54 103.99-23.39L103.99-23.39Q103.69-21.82 103.46-20.19 103.24-18.55 103.05-16.95L103.05-16.95Q105.21-17.24 107.8-17.41 110.39-17.58 112.96-17.67 115.53-17.77 117.58-17.77L117.58-17.77Q118.77-17.77 119.7-17.75 120.63-17.73 121.23-17.65L121.23-17.65 121.08-11.55Q120.6-11.58 119.76-11.6 118.92-11.62 117.8-11.62L117.8-11.62Q116.2-11.62 114.23-11.56 112.25-11.51 110.15-11.42 108.04-11.32 106.07-11.19 104.1-11.06 102.5-10.88L102.5-10.88Q102.35-8.79 102.35-7.52L102.35-7.52Q102.35-5.7 102.83-4.84 103.31-3.99 104.45-3.74 105.59-3.5 107.45-3.5L107.45-3.5Q110.76-3.5 114.58-4.06 118.4-4.62 122.12-5.81L122.12-5.81 122.53 0.67Q118.06 1.9 114.43 2.33 110.8 2.76 108.27 2.76ZM135.94 2.94L135.94 2.94Q134 2.94 132.16 2.27 130.32 1.6 128.85 0.2 127.37-1.19 126.52-3.3 125.66-5.4 125.66-8.23L125.66-8.23Q125.66-11.43 126.65-13.76 127.64-16.09 129.27-17.6 130.91-19.11 132.92-19.85 134.93-20.6 136.95-20.6L136.95-20.6Q138.14-20.6 139.22-20.43 140.3-20.26 141.23-19.96L141.23-19.96Q141.34-22.68 141.51-25.44 141.68-28.19 141.9-30.88L141.9-30.88 148.16-30.47Q147.86-27.37 147.64-23.82 147.41-20.26 147.32-16.57 147.23-12.89 147.23-9.39L147.23-9.39Q147.23-6.11 147.32-3.15 147.41-0.19 147.56 2.23L147.56 2.23 141.12 2.72Q141.08 2.01 141.08 1.34L141.08 1.34Q140 2.05 138.72 2.5 137.43 2.94 135.94 2.94ZM131.66-8.57L131.66-8.57Q131.66-6.63 132.4-5.53 133.15-4.43 134.23-3.99 135.31-3.54 136.31-3.54L136.31-3.54Q137.5-3.54 138.7-4.06 139.89-4.58 140.93-5.88L140.93-5.88Q140.93-6.33 140.93-6.74L140.93-6.74Q140.93-9.76 141.01-12.92L141.01-12.92Q139.26-14.45 137.21-14.45L137.21-14.45Q136.35-14.45 135.38-14.19 134.41-13.93 133.58-13.28 132.74-12.63 132.2-11.49 131.66-10.35 131.66-8.57ZM157.43-24.06L151.02-24.06Q151.02-24.39 151.01-24.75 150.99-25.1 150.99-25.55L150.99-25.55Q150.99-26.74 151.06-28.08 151.14-29.42 151.21-30.35L151.21-30.35 157.84-30.24Q157.73-28.98 157.6-27.37 157.47-25.77 157.43-24.06L157.43-24.06ZM157.36 2.61L150.88 2.61Q150.76 0.3 150.73-2.33 150.69-4.95 150.69-7.6L150.69-7.6Q150.69-11.06 150.76-14.34 150.84-17.62 150.95-20.3L150.95-20.3 157.36-20.34Q157.21-18.62 157.17-16.11 157.13-13.59 157.13-10.84L157.13-10.84Q157.13-8.12 157.17-5.47 157.21-2.83 157.26-0.69 157.32 1.45 157.36 2.61L157.36 2.61ZM172.14 2.94L172.14 2.94Q169.91 2.94 168.6 1.99 167.3 1.04 166.7-0.63 166.11-2.31 165.94-4.47 165.77-6.63 165.77-9.01L165.77-9.01Q165.77-11.47 165.96-14.12L165.96-14.12Q163.46-13.78 161.15-13.26L161.15-13.26 160-19.11Q163.09-19.93 166.59-20.3L166.59-20.3Q166.85-22.2 167.15-24.3 167.45-26.41 167.82-28.75L167.82-28.75 174.23-28.19Q173.78-26.26 173.45-24.34 173.11-22.42 172.85-20.63L172.85-20.63Q174.93-20.63 176.78-20.54 178.62-20.45 180.19-20.22L180.19-20.22 179.44-14.38Q178.14-14.53 176.74-14.58 175.34-14.64 173.93-14.64L173.93-14.64Q173.07-14.64 172.22-14.6L172.22-14.6Q171.99-11.88 171.94-9.94 171.88-8.01 171.88-7.19L171.88-7.19Q171.88-5.14 172.12-4.25 172.36-3.35 172.92-3.35L172.92-3.35Q173.56-3.35 174.34-3.78 175.12-4.21 175.88-4.95 176.65-5.7 177.17-6.55L177.17-6.55 180.04-0.56Q176.35 2.94 172.14 2.94ZM193.89 3.05L193.89 3.05Q190.91 3.05 188.7 2.09 186.48 1.12 185.03-0.58 183.58-2.27 182.87-4.47 182.16-6.67 182.16-9.09L182.16-9.09Q182.16-11.55 183.04-13.65 183.91-15.75 185.46-17.32 187-18.88 189.09-19.76 191.17-20.63 193.63-20.63L193.63-20.63Q196.2-20.63 198.4-19.74 200.6-18.85 202.23-17.24 203.87-15.64 204.79-13.48 205.7-11.32 205.7-8.79L205.7-8.79Q205.7-3.17 202.61-0.06 199.52 3.05 193.89 3.05ZM193.85-2.98L193.85-2.98Q196.57-2.98 198.01-4.51 199.44-6.03 199.44-8.9L199.44-8.9Q199.44-11.47 197.88-13.04 196.31-14.6 193.78-14.6L193.78-14.6Q192.25-14.6 190.99-13.8 189.72-13 188.96-11.68 188.19-10.35 188.19-8.75L188.19-8.75Q188.19-7.34 188.77-6 189.35-4.66 190.61-3.82 191.88-2.98 193.85-2.98ZM214.71 2.91L208.45 2.91Q208.6-0.19 208.68-3.28 208.75-6.37 208.75-9.39L208.75-9.39Q208.72-12.14 208.66-14.84 208.6-17.54 208.45-20.07L208.45-20.07 214.71-20.26Q214.75-18.88 214.82-17.43L214.82-17.43Q216.01-18.92 217.6-19.83 219.18-20.74 221.23-20.74L221.23-20.74Q222.01-20.74 223.24-20.52 224.47-20.3 225.74-19.66L225.74-19.66 225.03-13.37Q224.1-13.93 223.04-14.17 221.97-14.41 221.27-14.41L221.27-14.41Q218.88-14.41 217.23-12.27 215.57-10.13 214.97-6.33L214.97-6.33Q214.97-3.72 214.92-1.36 214.86 1.01 214.71 2.91L214.71 2.91Z" transform="translate(-1.6400001049041748, 30.8799991607666)"></path>
                    </g> <!----> <!----> <!----> <!----> <!----> <!----> <!---->
                </g>
            </g> <!---->
        </g>
    </g>
    <defs v-gra="od"></defs>
</svg>